0
SECTION
2
HEADER
9
$INSUNITS
70
4
9
$ACADVER
1
AC1014
9
$HANDSEED
5
FFFF
0
ENDSEC
0
SECTION
2
TABLES
0
TABLE
2
VPORT
5
8
100
AcDbSymbolTable
0
ENDTAB
0
TABLE
2
LTYPE
5
5
100
AcDbSymbolTable
0
LTYPE
5
14
100
AcDbSymbolTableRecord
100
AcDbLinetypeTableRecord
2
BYBLOCK
70
0
0
LTYPE
5
15
100
AcDbSymbolTableRecord
100
AcDbLinetypeTableRecord
2
BYLAYER
70
0
0
LTYPE
5
16
100
AcDbSymbolTableRecord
100
AcDbLinetypeTableRecord
2
DASHED
70
0
3
Dashed __ __ __ __ __ __ __ __ __ __ __ __ __ _
72
65
73
2
40
0.75
49
0.5
74
0
49
-0.25
74
0
0
ENDTAB
0
TABLE
2
LAYER
5
2
100
AcDbSymbolTable
70
2
0
LAYER
5
50
100
AcDbSymbolTableRecord
100
AcDbLayerTableRecord
2
0
70
0
62
7
6
CONTINUOUS
0
ENDTAB
0
TABLE
2
STYLE
5
3
100
AcDbSymbolTable
70
1
0
STYLE
5
11
100
AcDbSymbolTableRecord
100
AcDbTextStyleTableRecord
2
STANDARD
70
0
0
ENDTAB
0
TABLE
2
VIEW
5
6
100
AcDbSymbolTable
70
0
0
ENDTAB
0
TABLE
2
UCS
5
7
100
AcDbSymbolTable
70
0
0
ENDTAB
0
TABLE
2
APPID
5
9
100
AcDbSymbolTable
70
2
0
APPID
5
12
100
AcDbSymbolTableRecord
100
AcDbRegAppTableRecord
2
ACAD
70
0
0
ENDTAB
0
TABLE
2
DIMSTYLE
5
A
100
AcDbSymbolTable
70
1
0
ENDTAB
0
TABLE
2
BLOCK_RECORD
5
1
100
AcDbSymbolTable
70
1
0
BLOCK_RECORD
5
1F
100
AcDbSymbolTableRecord
100
AcDbBlockTableRecord
2
*MODEL_SPACE
0
BLOCK_RECORD
5
1B
100
AcDbSymbolTableRecord
100
AcDbBlockTableRecord
2
*PAPER_SPACE
0
ENDTAB
0
ENDSEC
0
SECTION
2
BLOCKS
0
BLOCK
5
20
100
AcDbEntity
100
AcDbBlockBegin
2
*MODEL_SPACE
0
ENDBLK
5
21
100
AcDbEntity
100
AcDbBlockEnd
0
BLOCK
5
1C
100
AcDbEntity
100
AcDbBlockBegin
2
*PAPER_SPACE
0
ENDBLK
5
1D
100
AcDbEntity
100
AcDbBlockEnd
0
ENDSEC
0
SECTION
2
ENTITIES
0
POINT
5
100
100
AcDbEntity
8
0
100
AcDbPoint
10
0
20
0
30
0
0
POINT
5
101
100
AcDbEntity
8
0
100
AcDbPoint
10
240
20
0
30
0
0
POINT
5
102
100
AcDbEntity
8
0
100
AcDbPoint
10
-1.6651761147024857e-15
20
147
30
0
0
POINT
5
103
100
AcDbEntity
8
0
100
AcDbPoint
10
125
20
-1.9255311358361372e-14
30
0
0
POINT
5
104
100
AcDbEntity
8
0
100
AcDbPoint
10
70
20
60
30
0
0
POINT
5
105
100
AcDbEntity
8
0
100
AcDbPoint
10
77.653228949753682
20
96.540134741449378
30
0
0
POINT
5
106
100
AcDbEntity
8
0
100
AcDbPoint
10
152.6532289497537
20
96.540134741449378
30
0
0
POINT
5
107
100
AcDbEntity
8
0
100
AcDbPoint
10
77.653228949753711
20
82.540134741449393
30
0
0
POINT
5
108
100
AcDbEntity
8
0
100
AcDbPoint
10
0
20
0
30
0
0
POINT
5
109
100
AcDbEntity
8
0
100
AcDbPoint
10
200
20
0
30
0
0
POINT
5
110
100
AcDbEntity
8
0
100
AcDbPoint
10
197.10000000000002
20
0
30
0
0
LWPOLYLINE
5
111
100
AcDbEntity
8
0
100
AcDbPolyline
90
28
70
1
43
0.0
10
240
20
4
10
240
20
143
42
0.41421356237309503
10
236
20
147
10
4
20
147
42
0.41421356237309503
10
-1.6729388042296877e-15
20
143
10
-5.5511151231257827e-16
20
4.0000000000000036
42
0.4142135623730952
10
3.9999999999999987
20
0
10
26
20
0
42
0.41421356237309548
10
30.000000000000004
20
3.9999999999999991
10
30
20
20
10
32.899999999999999
20
20
10
32.899999999999999
20
3.9999999999999991
42
0.41421356237309548
10
36.899999999999999
20
0
10
66
20
0
42
0.41421356237309503
10
70
20
3.9999999999999991
10
70
20
29.000000000000004
42
-0.41421356237309553
10
79.999999999999986
20
38.999999999999993
10
115.00000000000001
20
39
42
-0.41421356237309503
10
125
20
29.000000000000018
10
125
20
3.9999999999999911
42
0.41421356237309614
10
129
20
-8.8608006003158952e-15
10
193.10000000000002
20
-1.1102230246251565e-15
42
0.41421356237309681
10
197.10000000000002
20
3.9999999999999996
10
197.10000000000002
20
20
10
200
20
20
10
200
20
3.9999999999999996
42
0.41421356237309681
10
204
20
0
10
236
20
0
42
0.41421356237309503
0
CIRCLE
5
112
100
AcDbEntity
8
0
100
AcDbCircle
10
49.615856808850609
20
35.099202488899863
30
0
40
1.25
210
0
220
0
230
1
0
LINE
5
113
100
AcDbEntity
8
0
100
AcDbLine
10
49.615856808850609
20
35.099202488899863
30
0
11
21.715856808850607
21
35.099202488899863
31
0
6
DASHED
0
CIRCLE
5
114
100
AcDbEntity
8
0
100
AcDbCircle
10
21.715856808850607
20
35.099202488899863
30
0
40
1.25
210
0
220
0
230
1
0
CIRCLE
5
115
100
AcDbEntity
8
0
100
AcDbCircle
10
6.35663851760948
20
85.925545858854818
30
0
40
1.25
210
0
220
0
230
1
0
CIRCLE
5
116
100
AcDbEntity
8
0
100
AcDbCircle
10
54.649964757773255
20
87.128253217326318
30
0
40
1.25
210
0
220
0
230
1
0
LWPOLYLINE
5
117
100
AcDbEntity
8
0
100
AcDbPolyline
90
8
70
1
43
0.0
10
80.653228949753696
20
96.540134741449378
10
149.6532289497537
20
96.54013474144935
42
-0.41421356237309503
10
152.6532289497537
20
93.54013474144935
10
152.6532289497537
20
85.540134741449307
42
-0.41421356237309503
10
149.65322894975367
20
82.540134741449265
10
80.653228949753739
20
82.540134741449378
42
-0.41421356237309503
10
77.653228949753696
20
85.540134741449407
10
77.653228949753711
20
93.54013474144935
42
-0.41421356237309159
0
LWPOLYLINE
5
118
100
AcDbEntity
8
0
100
AcDbPolyline
90
4
70
1
43
0.0
10
170.94876456744547
20
101.73483642299576
10
170.94876456744547
20
43.857287660275304
42
0.99999999999999989
10
207.47803714719532
20
43.857287660275325
10
207.47803714719532
20
101.73483642299578
42
0.99999999999999989
0
LINE
5
119
100
AcDbEntity
8
0
100
AcDbLine
10
240
20
147
30
0
11
240
21
143
31
0
0
LINE
5
120
100
AcDbEntity
8
0
100
AcDbLine
10
240
20
147
30
0
11
237.80735269112631
21
147
31
0
0
LINE
5
121
100
AcDbEntity
8
0
100
AcDbLine
10
-1.6651761147024857e-15
20
147
30
0
11
6.0000000000000009
21
147
31
0
0
LINE
5
122
100
AcDbEntity
8
0
100
AcDbLine
10
0
20
144
30
0
11
-1.6651761147024857e-15
21
147
31
0
0
CIRCLE
5
123
100
AcDbEntity
8
0
100
AcDbCircle
10
8
20
140.5
30
0
40
1.25
210
0
220
0
230
1
0
LINE
5
124
100
AcDbEntity
8
0
100
AcDbLine
10
8
20
140.5
30
0
11
227.00000000000003
21
140.5
31
0
6
DASHED
0
LINE
5
125
100
AcDbEntity
8
0
100
AcDbLine
10
8
20
140.5
30
0
11
8.000000000000032
21
6.9999999999999929
31
0
6
DASHED
0
CIRCLE
5
126
100
AcDbEntity
8
0
100
AcDbCircle
10
8.000000000000032
20
6.9999999999999929
30
0
40
1.25
210
0
220
0
230
1
0
CIRCLE
5
127
100
AcDbEntity
8
0
100
AcDbCircle
10
227.00000000000003
20
140.5
30
0
40
1.25
210
0
220
0
230
1
0
LINE
5
128
100
AcDbEntity
8
0
100
AcDbLine
10
227.00000000000003
20
140.5
30
0
11
227.00000000000003
21
6.9999999999999796
31
0
6
DASHED
0
CIRCLE
5
129
100
AcDbEntity
8
0
100
AcDbCircle
10
227.00000000000003
20
6.9999999999999796
30
0
40
1.25
210
0
220
0
230
1
0
LINE
5
130
100
AcDbEntity
8
0
100
AcDbLine
10
227.00000000000003
20
6.9999999999999796
30
0
11
227.00000000000003
21
0.99999999999997868
31
0
6
DASHED
0
LINE
5
131
100
AcDbEntity
8
0
100
AcDbLine
10
8
20
140.5
30
0
11
8
21
146.5
31
0
0
LINE
5
132
100
AcDbEntity
8
0
100
AcDbLine
10
8
20
140.5
30
0
11
0.50000000000000056
21
140.5
31
0
0
LINE
5
133
100
AcDbEntity
8
0
100
AcDbLine
10
8.000000000000032
20
6.9999999999999929
30
0
11
2.0000000000000324
21
6.9999999999999929
31
0
0
LINE
5
134
100
AcDbEntity
8
0
100
AcDbLine
10
8.000000000000032
20
6.9999999999999929
30
0
11
8.000000000000032
21
0.99999999999999201
31
0
0
LINE
5
135
100
AcDbEntity
8
0
100
AcDbLine
10
227.00000000000003
20
6.9999999999999796
30
0
11
239.00000000000006
21
6.9999999999999796
31
0
0
ENDSEC
0
SECTION
2
OBJECTS
0
DICTIONARY
5
C
100
AcDbDictionary
3
ACAD_GROUP
350
D
3
ACAD_MLINESTYLE
350
17
0
DICTIONARY
5
D
100
AcDbDictionary
0
DICTIONARY
5
1A
330
C
100
AcDbDictionary
0
DICTIONARY
5
17
100
AcDbDictionary
0
ENDSEC
0
EOF
