0
SECTION
2
HEADER
9
$INSUNITS
70
4
9
$ACADVER
1
AC1014
9
$HANDSEED
5
FFFF
0
ENDSEC
0
SECTION
2
TABLES
0
TABLE
2
VPORT
5
8
100
AcDbSymbolTable
0
ENDTAB
0
TABLE
2
LTYPE
5
5
100
AcDbSymbolTable
0
LTYPE
5
14
100
AcDbSymbolTableRecord
100
AcDbLinetypeTableRecord
2
BYBLOCK
70
0
0
LTYPE
5
15
100
AcDbSymbolTableRecord
100
AcDbLinetypeTableRecord
2
BYLAYER
70
0
0
LTYPE
5
16
100
AcDbSymbolTableRecord
100
AcDbLinetypeTableRecord
2
DASHED
70
0
3
Dashed __ __ __ __ __ __ __ __ __ __ __ __ __ _
72
65
73
2
40
0.75
49
0.5
74
0
49
-0.25
74
0
0
ENDTAB
0
TABLE
2
LAYER
5
2
100
AcDbSymbolTable
70
2
0
LAYER
5
50
100
AcDbSymbolTableRecord
100
AcDbLayerTableRecord
2
0
70
0
62
7
6
CONTINUOUS
0
ENDTAB
0
TABLE
2
STYLE
5
3
100
AcDbSymbolTable
70
1
0
STYLE
5
11
100
AcDbSymbolTableRecord
100
AcDbTextStyleTableRecord
2
STANDARD
70
0
0
ENDTAB
0
TABLE
2
VIEW
5
6
100
AcDbSymbolTable
70
0
0
ENDTAB
0
TABLE
2
UCS
5
7
100
AcDbSymbolTable
70
0
0
ENDTAB
0
TABLE
2
APPID
5
9
100
AcDbSymbolTable
70
2
0
APPID
5
12
100
AcDbSymbolTableRecord
100
AcDbRegAppTableRecord
2
ACAD
70
0
0
ENDTAB
0
TABLE
2
DIMSTYLE
5
A
100
AcDbSymbolTable
70
1
0
ENDTAB
0
TABLE
2
BLOCK_RECORD
5
1
100
AcDbSymbolTable
70
1
0
BLOCK_RECORD
5
1F
100
AcDbSymbolTableRecord
100
AcDbBlockTableRecord
2
*MODEL_SPACE
0
BLOCK_RECORD
5
1B
100
AcDbSymbolTableRecord
100
AcDbBlockTableRecord
2
*PAPER_SPACE
0
ENDTAB
0
ENDSEC
0
SECTION
2
BLOCKS
0
BLOCK
5
20
100
AcDbEntity
100
AcDbBlockBegin
2
*MODEL_SPACE
0
ENDBLK
5
21
100
AcDbEntity
100
AcDbBlockEnd
0
BLOCK
5
1C
100
AcDbEntity
100
AcDbBlockBegin
2
*PAPER_SPACE
0
ENDBLK
5
1D
100
AcDbEntity
100
AcDbBlockEnd
0
ENDSEC
0
SECTION
2
ENTITIES
0
LWPOLYLINE
5
100
100
AcDbEntity
8
0
100
AcDbPolyline
90
4
70
1
43
0.0
10
34.463079791769296
20
39.368055632394324
10
34.463079791769296
20
29.368055632394359
42
0.99999999999999989
10
39.463079791769289
20
29.368055632394359
10
39.463079791769289
20
39.368055632394324
42
0.99999999999999989
0
LWPOLYLINE
5
101
100
AcDbEntity
8
0
100
AcDbPolyline
90
4
70
1
43
0.0
10
154.46307979176879
20
39.368055632394345
10
154.46307979176879
20
29.36805563239438
42
0.99999999999999989
10
159.46307979176879
20
29.36805563239438
10
159.46307979176879
20
39.368055632394345
42
0.99999999999999989
0
LWPOLYLINE
5
102
100
AcDbEntity
8
0
100
AcDbPolyline
90
4
70
1
43
0.0
10
34.463079791769296
20
79.36805563239416
10
34.463079791769296
20
69.368055632394203
42
0.99999999999999989
10
39.463079791769282
20
69.368055632394203
10
39.463079791769282
20
79.36805563239416
42
0.99999999999999989
0
LWPOLYLINE
5
103
100
AcDbEntity
8
0
100
AcDbPolyline
90
4
70
1
43
0.0
10
154.46307979176879
20
79.368055632394189
10
154.46307979176879
20
69.368055632394217
42
0.99999999999999989
10
159.46307979176879
20
69.368055632394217
10
159.46307979176876
20
79.368055632394189
42
0.99999999999999989
0
LWPOLYLINE
5
104
100
AcDbEntity
8
0
100
AcDbPolyline
90
4
70
1
43
0.0
10
34.463079791769289
20
119.368055632394
10
34.463079791769289
20
109.36805563239403
42
0.99999999999999989
10
39.463079791769275
20
109.36805563239403
10
39.463079791769275
20
119.368055632394
42
0.99999999999999989
0
LWPOLYLINE
5
105
100
AcDbEntity
8
0
100
AcDbPolyline
90
4
70
1
43
0.0
10
74.463079791769118
20
119.368055632394
10
74.463079791769118
20
109.36805563239403
42
0.99999999999999989
10
79.46307979176909
20
109.36805563239403
10
79.46307979176909
20
119.368055632394
42
0.99999999999999989
0
LWPOLYLINE
5
106
100
AcDbEntity
8
0
100
AcDbPolyline
90
4
70
1
43
0.0
10
114.46307979176895
20
119.368055632394
10
114.46307979176895
20
109.36805563239403
42
0.99999999999999989
10
119.46307979176893
20
109.36805563239403
10
119.46307979176893
20
119.368055632394
42
0.99999999999999989
0
LWPOLYLINE
5
107
100
AcDbEntity
8
0
100
AcDbPolyline
90
4
70
1
43
0.0
10
154.46307979176879
20
119.36805563239403
10
154.46307979176879
20
109.36805563239406
42
0.99999999999999989
10
159.46307979176876
20
109.36805563239406
10
159.46307979176876
20
119.36805563239403
42
0.99999999999999989
0
LWPOLYLINE
5
108
100
AcDbEntity
8
0
100
AcDbPolyline
90
4
70
1
43
0.0
10
139.46307979176885
20
9.3680556323944675
10
139.46307979176885
20
19.36805563239443
42
0.99999999999999989
10
134.46307979176885
20
19.36805563239443
10
134.46307979176888
20
9.3680556323944675
42
0.99999999999999989
0
LWPOLYLINE
5
109
100
AcDbEntity
8
0
100
AcDbPolyline
90
4
70
1
43
0.0
10
139.46307979176885
20
129.36805563239398
10
139.46307979176882
20
139.36805563239392
42
0.99999999999999989
10
134.46307979176885
20
139.36805563239392
10
134.46307979176885
20
129.36805563239398
42
0.99999999999999989
0
LWPOLYLINE
5
110
100
AcDbEntity
8
0
100
AcDbPolyline
90
4
70
1
43
0.0
10
54.463079791769218
20
49.368055632394288
42
0.99999999999999989
10
59.463079791769189
20
49.368055632394288
10
59.463079791769189
20
59.368055632394238
42
0.99999999999999989
10
54.463079791769218
20
59.368055632394238
0
LWPOLYLINE
5
111
100
AcDbEntity
8
0
100
AcDbPolyline
90
4
70
1
43
0.0
10
59.463079791769182
20
139.36805563239389
42
0.99999999999999989
10
54.463079791769211
20
139.36805563239389
10
54.463079791769211
20
129.36805563239392
42
0.99999999999999989
10
59.463079791769182
20
129.36805563239392
0
LWPOLYLINE
5
112
100
AcDbEntity
8
0
100
AcDbPolyline
90
4
70
1
43
0.0
10
99.463079791769019
20
49.368055632394309
10
99.463079791769019
20
59.368055632394253
42
0.99999999999999989
10
94.463079791769047
20
59.368055632394253
10
94.463079791769047
20
49.368055632394309
42
0.99999999999999989
0
LWPOLYLINE
5
113
100
AcDbEntity
8
0
100
AcDbPolyline
90
4
70
1
43
0.0
10
14.463079791769388
20
9.3680556323944497
42
0.99999999999999989
10
19.463079791769367
20
9.3680556323944497
10
19.463079791769367
20
19.368055632394416
42
0.99999999999999989
10
14.463079791769387
20
19.368055632394416
0
LWPOLYLINE
5
114
100
AcDbEntity
8
0
100
AcDbPolyline
90
4
70
1
43
0.0
10
99.463079791769019
20
129.36805563239392
10
99.463079791769005
20
139.36805563239389
42
0.99999999999999989
10
94.463079791769019
20
139.36805563239389
10
94.463079791769047
20
129.36805563239392
42
0.99999999999999989
0
LWPOLYLINE
5
115
100
AcDbEntity
8
0
100
AcDbPolyline
90
4
70
1
43
0.0
10
214.46307979176854
20
9.3680556323944764
42
0.99999999999999989
10
219.46307979176854
20
9.3680556323944764
10
219.46307979176854
20
19.368055632394441
42
0.99999999999999989
10
214.46307979176854
20
19.368055632394441
0
LWPOLYLINE
5
116
100
AcDbEntity
8
0
100
AcDbPolyline
90
4
70
1
43
0.0
10
179.46307979176865
20
139.36805563239392
42
0.99999999999999989
10
174.46307979176868
20
139.36805563239392
10
174.46307979176868
20
129.36805563239398
42
0.99999999999999989
10
179.46307979176865
20
129.36805563239398
0
LWPOLYLINE
5
117
100
AcDbEntity
8
0
100
AcDbPolyline
90
4
70
1
43
0.0
10
139.46307979176885
20
49.368055632394309
10
139.46307979176885
20
59.368055632394253
42
0.99999999999999989
10
134.46307979176885
20
59.368055632394253
10
134.46307979176885
20
49.368055632394309
42
0.99999999999999989
0
LWPOLYLINE
5
118
100
AcDbEntity
8
0
100
AcDbPolyline
90
4
70
1
43
0.0
10
219.46307979176854
20
49.368055632394324
10
219.46307979176854
20
59.368055632394274
42
0.99999999999999989
10
214.46307979176854
20
59.368055632394274
10
214.46307979176854
20
49.368055632394324
42
0.99999999999999989
0
LWPOLYLINE
5
119
100
AcDbEntity
8
0
100
AcDbPolyline
90
4
70
1
43
0.0
10
54.463079791769225
20
19.368055632394423
10
54.463079791769225
20
9.3680556323944586
42
0.99999999999999989
10
59.463079791769204
20
9.3680556323944586
10
59.463079791769204
20
19.368055632394423
42
0.99999999999999989
0
LWPOLYLINE
5
120
100
AcDbEntity
8
0
100
AcDbPolyline
90
4
70
1
43
0.0
10
214.46307979176851
20
129.36805563239398
42
0.99999999999999989
10
219.46307979176851
20
129.36805563239398
10
219.46307979176851
20
139.36805563239392
42
0.99999999999999989
10
214.46307979176851
20
139.36805563239392
0
LWPOLYLINE
5
121
100
AcDbEntity
8
0
100
AcDbPolyline
90
4
70
1
43
0.0
10
214.46307979176851
20
99.368055632394103
10
214.46307979176851
20
89.368055632394146
42
0.99999999999999989
10
219.46307979176851
20
89.368055632394146
10
219.46307979176851
20
99.368055632394103
42
0.99999999999999989
0
LWPOLYLINE
5
122
100
AcDbEntity
8
0
100
AcDbPolyline
90
4
70
1
43
0.0
10
14.463079791769378
20
89.368055632394103
42
0.99999999999999989
10
19.46307979176936
20
89.368055632394103
10
19.463079791769356
20
99.368055632394061
42
0.99999999999999989
10
14.463079791769376
20
99.368055632394061
0
LWPOLYLINE
5
123
100
AcDbEntity
8
0
100
AcDbPolyline
90
4
70
1
43
0.0
10
19.463079791769363
20
49.368055632394288
10
19.46307979176936
20
59.368055632394238
42
0.99999999999999989
10
14.463079791769381
20
59.368055632394238
10
14.463079791769385
20
49.368055632394288
42
0.99999999999999989
0
LWPOLYLINE
5
124
100
AcDbEntity
8
0
100
AcDbPolyline
90
4
70
1
43
0.0
10
179.46307979176868
20
19.368055632394441
42
0.99999999999999989
10
174.46307979176873
20
19.368055632394441
10
174.46307979176873
20
9.3680556323944764
42
0.99999999999999989
10
179.46307979176868
20
9.3680556323944764
0
LWPOLYLINE
5
125
100
AcDbEntity
8
0
100
AcDbPolyline
90
4
70
1
43
0.0
10
14.463079791769371
20
139.36805563239389
10
14.463079791769374
20
129.36805563239392
42
0.99999999999999989
10
19.463079791769353
20
129.36805563239392
10
19.463079791769353
20
139.36805563239389
42
0.99999999999999989
0
CIRCLE
5
126
100
AcDbEntity
8
0
100
AcDbCircle
10
85.932202118863728
20
135.94500889146357
30
0
40
1.0500000000000078
210
0
220
0
230
1
0
CIRCLE
5
127
100
AcDbEntity
8
0
100
AcDbCircle
10
85.753704590823858
20
117.82750979541724
30
0
40
1.0500000000000034
210
0
220
0
230
1
0
ENDSEC
0
SECTION
2
OBJECTS
0
DICTIONARY
5
C
100
AcDbDictionary
3
ACAD_GROUP
350
D
3
ACAD_MLINESTYLE
350
17
0
DICTIONARY
5
D
100
AcDbDictionary
0
DICTIONARY
5
1A
330
C
100
AcDbDictionary
0
DICTIONARY
5
17
100
AcDbDictionary
0
ENDSEC
0
EOF
